<?xml version="1.0" encoding="UTF-8" standalone="no"?>
<svg xmlns:dc="http://purl.org/dc/elements/1.1/" xmlns:cc="http://creativecommons.org/ns#" xmlns:rdf="http://www.w3.org/1999/02/22-rdf-syntax-ns#" xmlns:svg="http://www.w3.org/2000/svg" xmlns="http://www.w3.org/2000/svg" xmlns:sodipodi="http://sodipodi.sourceforge.net/DTD/sodipodi-0.dtd" xmlns:inkscape="http://www.inkscape.org/namespaces/inkscape" width="56" height="56" viewBox="0 0 56 56" id="svg7727" version="1.1" inkscape:version="0.91 r13725" sodipodi:docname="dinner-plate-fork-knife-restaurant-breakfast-eat.svg">
  <defs id="defs7729">
    <pattern y="0" x="0" height="6" width="6" patternUnits="userSpaceOnUse" id="EMFhbasepattern"/>
    <pattern y="0" x="0" height="6" width="6" patternUnits="userSpaceOnUse" id="EMFhbasepattern-6"/>
    <pattern y="0" x="0" height="6" width="6" patternUnits="userSpaceOnUse" id="EMFhbasepattern-9"/>
    <pattern y="0" x="0" height="6" width="6" patternUnits="userSpaceOnUse" id="EMFhbasepattern-0"/>
    <pattern y="0" x="0" height="6" width="6" patternUnits="userSpaceOnUse" id="EMFhbasepattern-1"/>
    <pattern y="0" x="0" height="6" width="6" patternUnits="userSpaceOnUse" id="EMFhbasepattern-2"/>
    <pattern y="0" x="0" height="6" width="6" patternUnits="userSpaceOnUse" id="EMFhbasepattern-5"/>
    <pattern y="0" x="0" height="6" width="6" patternUnits="userSpaceOnUse" id="EMFhbasepattern-19"/>
    <pattern y="0" x="0" height="6" width="6" patternUnits="userSpaceOnUse" id="EMFhbasepattern-17"/>
    <pattern y="0" x="0" height="6" width="6" patternUnits="userSpaceOnUse" id="EMFhbasepattern-8"/>
    <pattern y="0" x="0" height="6" width="6" patternUnits="userSpaceOnUse" id="EMFhbasepattern-22"/>
    <inkscape:path-effect effect="fillet-chamfer" id="path-effect6467-5-5-4" is_visible="true" fillet_chamfer_values="0,0 | 0,1 | 0,1" method="auto" radius="0" chamfer_steps="1" helper_size="0" flexible="false" use_knot_distance="false" ignore_radius_0="false" only_selected="true" hide_knots="false"/>
    <pattern y="0" x="0" height="6" width="6" patternUnits="userSpaceOnUse" id="EMFhbasepattern-60"/>
    <pattern y="0" x="0" height="6" width="6" patternUnits="userSpaceOnUse" id="EMFhbasepattern-54"/>
    <inkscape:path-effect effect="fillet-chamfer" id="path-effect11235-8-1-8" is_visible="true" fillet_chamfer_values="0,0 | -0.22506544,1" method="auto" radius="0.25" chamfer_steps="1" helper_size="0" flexible="false" use_knot_distance="false" ignore_radius_0="false" only_selected="false" hide_knots="false"/>
    <inkscape:path-effect effect="fillet-chamfer" id="path-effect11231-3-0-9" is_visible="true" fillet_chamfer_values="0,1 | 0,1 | 0,1 | 0,1" method="auto" radius="0.25" chamfer_steps="1" helper_size="0" flexible="false" use_knot_distance="false" ignore_radius_0="false" only_selected="false" hide_knots="false"/>
    <inkscape:path-effect effect="fillet-chamfer" id="path-effect11235-7-8-1-9" is_visible="true" fillet_chamfer_values="0,0 | -0.22506544,1" method="auto" radius="0.25" chamfer_steps="1" helper_size="0" flexible="false" use_knot_distance="false" ignore_radius_0="false" only_selected="false" hide_knots="false"/>
    <inkscape:path-effect effect="fillet-chamfer" id="path-effect11231-0-1-4-0" is_visible="true" fillet_chamfer_values="0,1 | 0,1 | 0,1 | 0,1" method="auto" radius="0.25" chamfer_steps="1" helper_size="0" flexible="false" use_knot_distance="false" ignore_radius_0="false" only_selected="false" hide_knots="false"/>
    <pattern y="0" x="0" height="6" width="6" patternUnits="userSpaceOnUse" id="EMFhbasepattern-4"/>
    <pattern y="0" x="0" height="6" width="6" patternUnits="userSpaceOnUse" id="EMFhbasepattern-48"/>
    <pattern y="0" x="0" height="6" width="6" patternUnits="userSpaceOnUse" id="EMFhbasepattern-7"/>
    <pattern y="0" x="0" height="6" width="6" patternUnits="userSpaceOnUse" id="EMFhbasepattern-59"/>
    <pattern y="0" x="0" height="6" width="6" patternUnits="userSpaceOnUse" id="EMFhbasepattern-607"/>
    <inkscape:path-effect effect="fillet-chamfer" id="path-effect7915-0-2-3" is_visible="true" fillet_chamfer_values="0,0 | -0.5,1" method="auto" radius="0.5" chamfer_steps="1" helper_size="0" flexible="false" use_knot_distance="false" ignore_radius_0="false" only_selected="false" hide_knots="false"/>
    <pattern y="0" x="0" height="6" width="6" patternUnits="userSpaceOnUse" id="EMFhbasepattern-70"/>
  </defs>
  <sodipodi:namedview id="base" pagecolor="#ffffff" bordercolor="#666666" borderopacity="1.0" inkscape:pageopacity="0.0" inkscape:pageshadow="2" inkscape:zoom="6.3578597" inkscape:cx="29.197529" inkscape:cy="31.658146" inkscape:document-units="px" inkscape:current-layer="layer1" showgrid="true" units="px" inkscape:window-width="1366" inkscape:window-height="716" inkscape:window-x="-8" inkscape:window-y="-8" inkscape:window-maximized="1" inkscape:snap-global="false">
    <inkscape:grid type="xygrid" id="grid4443" empspacing="2" spacingx="0.5" spacingy="0.5"/>
  </sodipodi:namedview>
  
  <g inkscape:label="Layer 1" inkscape:groupmode="layer" id="layer1" transform="translate(0,-996.3622)">
    <g id="g16154" transform="matrix(3.7795276,0,0,3.7795276,2017.6848,-2830.2734)">
      <circle r="7.4083333" cy="1019.8723" cx="-526.43744" id="circle16134" style="opacity:1;fill:#8bc34a;fill-opacity:1;stroke:none;stroke-width:0.26458335;stroke-linecap:round;stroke-linejoin:round;stroke-miterlimit:4;stroke-dasharray:none;stroke-dashoffset:0;stroke-opacity:1"/>
      <g id="g16152" transform="matrix(0.99074703,0,0,0.99386147,-56.923331,337.35536)" style="fill:#ffffff;stroke-width:1.00775671">
        <g transform="translate(280.98749,-1.4664224)" id="g16140" style="fill:#ffffff;stroke-width:1.00775671">
          <path sodipodi:nodetypes="cscsscscc" id="path16136" d="m -758.48824,688.60692 4e-5,1.67171 c 0,0.13952 0.0927,0.25487 0.2186,0.29663 0.0299,0.0127 0.0631,0.0196 0.0977,0.0196 l 0.0289,0 c 0.0345,0 0.0665,-0.009 0.0977,-0.0196 0.12589,-0.0417 0.2186,-0.15711 0.2186,-0.29663 l -4e-5,-1.67171 z" style="opacity:1;fill:#ffffff;fill-opacity:1;stroke:none;stroke-width:0.26663566;stroke-linecap:round;stroke-linejoin:miter;stroke-miterlimit:4;stroke-dasharray:none;stroke-dashoffset:0;stroke-opacity:1" inkscape:connector-curvature="0"/>
          <path inkscape:connector-curvature="0" id="path16138" d="m -758.69426,685.80313 a 0.13230492,0.13230492 0 0 0 -0.014,0 0.13230492,0.13230492 0 0 0 -0.11732,0.13488 l 0.006,1.08209 a 0.13281499,0.13281499 0 0 0 0,0.003 l 0,0.13282 0,0.28318 c 0,0.15439 0.0892,0.28776 0.21084,0.37465 0.0895,0.0639 0.19852,0.10634 0.31832,0.12454 l 0,0.40516 0.26562,0 0,-0.40516 c 0.1198,-0.0183 0.22881,-0.0606 0.31832,-0.12454 0.12165,-0.0869 0.21084,-0.22026 0.21084,-0.37465 l 0,-0.4129 a 0.13281,0.13281 0 0 0 0,-0.005 l -0.008,-1.08419 a 0.13230492,0.13230492 0 0 0 -0.14623,-0.13279 0.13230492,0.13230492 0 0 0 -0.11732,0.13489 l 0.006,1.08209 a 0.13281,0.13281 0 0 0 0,0.003 l -0.26406,0 a 0.13281499,0.13281499 0 0 0 0,-0.003 l -0.006,-1.08419 a 0.13230492,0.13230492 0 0 0 -0.14883,-0.13279 0.13230492,0.13230492 0 0 0 -0.11681,0.13489 l 0.006,1.08209 a 0.13281499,0.13281499 0 0 0 0,0.003 l -0.26355,0 a 0.13281499,0.13281499 0 0 0 0,-0.003 l -0.006,-1.08419 a 0.13230492,0.13230492 0 0 0 -0.13438,-0.13382 z" style="color:#000000;font-style:normal;font-variant:normal;font-weight:normal;font-stretch:normal;font-size:medium;line-height:normal;font-family:sans-serif;text-indent:0;text-align:start;text-decoration:none;text-decoration-line:none;text-decoration-style:solid;text-decoration-color:#000000;letter-spacing:normal;word-spacing:normal;text-transform:none;direction:ltr;writing-mode:lr-tb;baseline-shift:baseline;text-anchor:start;white-space:normal;clip-rule:nonzero;display:inline;overflow:visible;visibility:visible;opacity:1;isolation:auto;mix-blend-mode:normal;color-interpolation:sRGB;color-interpolation-filters:linearRGB;solid-color:#000000;solid-opacity:1;fill:#ffffff;fill-opacity:1;fill-rule:evenodd;stroke:none;stroke-width:1.00775683px;stroke-linecap:round;stroke-linejoin:miter;stroke-miterlimit:4;stroke-dasharray:none;stroke-dashoffset:0;stroke-opacity:1;color-rendering:auto;image-rendering:auto;shape-rendering:auto;text-rendering:auto;enable-background:accumulate"/>
        </g>
        <g transform="translate(280.98749,-1.0844694)" id="g16148" style="fill:#ffffff;stroke-width:1.00775671">
          <path inkscape:connector-curvature="0" id="path16142" transform="matrix(0.26458333,0,0,0.26458333,0,288.53332)" d="m -2852.4766,1500.1035 a 8.9999996,8.9999996 0 0 0 -9,9 8.9999996,8.9999996 0 0 0 9,9 8.9999996,8.9999996 0 0 0 9,-9 8.9999996,8.9999996 0 0 0 -9,-9 z m 0,3.5 a 5.4999999,5.4999999 0 0 1 5.5,5.5 5.4999999,5.4999999 0 0 1 -5.5,5.5 5.4999999,5.4999999 0 0 1 -5.5,-5.5 5.4999999,5.4999999 0 0 1 5.5,-5.5 z" style="opacity:1;fill:#ffffff;fill-opacity:1;stroke:none;stroke-width:1.00775683;stroke-linecap:round;stroke-linejoin:round;stroke-miterlimit:4;stroke-dasharray:none;stroke-dashoffset:0;stroke-opacity:1"/>
          <g style="fill:#ffffff;stroke-width:1.23170257" transform="matrix(0.81818184,0,0,0.81818184,-264.52296,126.78166)" id="g16146">
            <path inkscape:connector-curvature="0" id="path16144" transform="matrix(0.32337962,0,0,0.32337962,323.30583,197.69647)" d="m -2852.4766,1504.6035 a 4.5,4.5 0 0 0 -4.5,4.5 4.5,4.5 0 0 0 4.5,4.5 4.5,4.5 0 0 0 4.5,-4.5 4.5,4.5 0 0 0 -4.5,-4.5 z m -0.8418,1.1348 a 0.50005003,0.50005003 0 0 1 0.1719,0.9785 c -0.5997,0.1917 -1.0907,0.6756 -1.3105,1.3164 a 0.50005003,0.50005003 0 1 1 -0.9434,-0.3262 c 0.3179,-0.9262 1.0326,-1.6478 1.9453,-1.9394 a 0.50005003,0.50005003 0 0 1 0.084,-0.025 l 0,0 a 0.50005003,0.50005003 0 0 1 0.053,-0.01 z m -1.9121,2.9707 a 0.50000003,0.50000003 0 0 1 0.035,0 0.50000003,0.50000003 0 0 1 0.5,0.5 0.50000003,0.50000003 0 0 1 -0.5,0.5 0.50000003,0.50000003 0 0 1 -0.5,-0.5 0.50000003,0.50000003 0 0 1 0.4648,-0.5 z" style="opacity:1;fill:#ffffff;fill-opacity:1;stroke:none;stroke-width:1.00775659;stroke-linecap:round;stroke-linejoin:round;stroke-miterlimit:4;stroke-dasharray:none;stroke-dashoffset:0;stroke-opacity:1"/>
          </g>
        </g>
        <path id="path16150" d="m -469.96204,684.35123 c -0.47584,0.44424 -0.78487,1.07242 -0.79174,1.58751 l 0,1.38905 0.29694,0 0.49598,0 z m -0.4948,3.17501 0.002,1.58749 0.49481,0 0,-1.58749 z" style="fill:#ffffff;fill-rule:evenodd;stroke:none;stroke-width:0.2666356;stroke-linecap:round;stroke-linejoin:round;stroke-miterlimit:4;stroke-dasharray:none;stroke-opacity:1" inkscape:connector-curvature="0"/>
      </g>
    </g>
  </g>

	<metadata>
		<rdf:RDF xmlns:rdf="http://www.w3.org/1999/02/22-rdf-syntax-ns#" xmlns:rdfs="http://www.w3.org/2000/01/rdf-schema#" xmlns:dc="http://purl.org/dc/elements/1.1/">
			<rdf:Description about="https://iconscout.com/legal#licenses" dc:title="dinner-plate-fork-knife-restaurant-breakfast-eat" dc:description="dinner-plate-fork-knife-restaurant-breakfast-eat" dc:publisher="Iconscout" dc:date="2017-06-27" dc:format="image/svg+xml" dc:language="en">
				<dc:creator>
					<rdf:Bag>
						<rdf:li>Vignesh Oviyan</rdf:li>
					</rdf:Bag>
				</dc:creator>
			</rdf:Description>
		</rdf:RDF>
    </metadata></svg>
