<svg id="SvgjsSvg1001" width="288" height="288" xmlns="http://www.w3.org/2000/svg" version="1.1" xmlns:xlink="http://www.w3.org/1999/xlink" xmlns:svgjs="http://svgjs.com/svgjs"><defs id="SvgjsDefs1002"></defs><g id="SvgjsG1008" transform="matrix(0.9167,0,0,0.9167,11.995198170583762,11.995252294921187)"><!--?xml version="1.0" encoding="UTF-8" standalone="no"?--><svg xmlns:dc="http://purl.org/dc/elements/1.1/" xmlns:cc="http://creativecommons.org/ns#" xmlns:rdf="http://www.w3.org/1999/02/22-rdf-syntax-ns#" xmlns:svg="http://www.w3.org/2000/svg" xmlns="http://www.w3.org/2000/svg" xmlns:sodipodi="http://sodipodi.sourceforge.net/DTD/sodipodi-0.dtd" xmlns:inkscape="http://www.inkscape.org/namespaces/inkscape" width="288" height="288" viewBox="0 0 56 56" id="svg7727" version="1.1" inkscape:version="0.91 r13725" sodipodi:docname="measuring-spoon-spoons-kitchen-portion-control-measure.svg">
  <defs id="defs7729">
    <pattern y="0" x="0" height="6" width="6" patternUnits="userSpaceOnUse" id="EMFhbasepattern"></pattern>
    <pattern y="0" x="0" height="6" width="6" patternUnits="userSpaceOnUse" id="EMFhbasepattern-6"></pattern>
    <pattern y="0" x="0" height="6" width="6" patternUnits="userSpaceOnUse" id="EMFhbasepattern-9"></pattern>
    <pattern y="0" x="0" height="6" width="6" patternUnits="userSpaceOnUse" id="EMFhbasepattern-0"></pattern>
    <pattern y="0" x="0" height="6" width="6" patternUnits="userSpaceOnUse" id="EMFhbasepattern-1"></pattern>
    <pattern y="0" x="0" height="6" width="6" patternUnits="userSpaceOnUse" id="EMFhbasepattern-2"></pattern>
    <pattern y="0" x="0" height="6" width="6" patternUnits="userSpaceOnUse" id="EMFhbasepattern-5"></pattern>
    <pattern y="0" x="0" height="6" width="6" patternUnits="userSpaceOnUse" id="EMFhbasepattern-19"></pattern>
    <pattern y="0" x="0" height="6" width="6" patternUnits="userSpaceOnUse" id="EMFhbasepattern-17"></pattern>
    <pattern y="0" x="0" height="6" width="6" patternUnits="userSpaceOnUse" id="EMFhbasepattern-8"></pattern>
    <pattern y="0" x="0" height="6" width="6" patternUnits="userSpaceOnUse" id="EMFhbasepattern-22"></pattern>
    <inkscape:path-effect effect="fillet-chamfer" id="path-effect6467-5-5-4" is_visible="true" fillet_chamfer_values="0,0 | 0,1 | 0,1" method="auto" radius="0" chamfer_steps="1" helper_size="0" flexible="false" use_knot_distance="false" ignore_radius_0="false" only_selected="true" hide_knots="false"></inkscape:path-effect>
    <pattern y="0" x="0" height="6" width="6" patternUnits="userSpaceOnUse" id="EMFhbasepattern-60"></pattern>
    <pattern y="0" x="0" height="6" width="6" patternUnits="userSpaceOnUse" id="EMFhbasepattern-54"></pattern>
    <inkscape:path-effect effect="fillet-chamfer" id="path-effect11235-8-1-8" is_visible="true" fillet_chamfer_values="0,0 | -0.22506544,1" method="auto" radius="0.25" chamfer_steps="1" helper_size="0" flexible="false" use_knot_distance="false" ignore_radius_0="false" only_selected="false" hide_knots="false"></inkscape:path-effect>
    <inkscape:path-effect effect="fillet-chamfer" id="path-effect11231-3-0-9" is_visible="true" fillet_chamfer_values="0,1 | 0,1 | 0,1 | 0,1" method="auto" radius="0.25" chamfer_steps="1" helper_size="0" flexible="false" use_knot_distance="false" ignore_radius_0="false" only_selected="false" hide_knots="false"></inkscape:path-effect>
    <inkscape:path-effect effect="fillet-chamfer" id="path-effect11235-7-8-1-9" is_visible="true" fillet_chamfer_values="0,0 | -0.22506544,1" method="auto" radius="0.25" chamfer_steps="1" helper_size="0" flexible="false" use_knot_distance="false" ignore_radius_0="false" only_selected="false" hide_knots="false"></inkscape:path-effect>
    <inkscape:path-effect effect="fillet-chamfer" id="path-effect11231-0-1-4-0" is_visible="true" fillet_chamfer_values="0,1 | 0,1 | 0,1 | 0,1" method="auto" radius="0.25" chamfer_steps="1" helper_size="0" flexible="false" use_knot_distance="false" ignore_radius_0="false" only_selected="false" hide_knots="false"></inkscape:path-effect>
    <pattern y="0" x="0" height="6" width="6" patternUnits="userSpaceOnUse" id="EMFhbasepattern-4"></pattern>
    <pattern y="0" x="0" height="6" width="6" patternUnits="userSpaceOnUse" id="EMFhbasepattern-48"></pattern>
    <pattern y="0" x="0" height="6" width="6" patternUnits="userSpaceOnUse" id="EMFhbasepattern-62"></pattern>
  </defs>
  <sodipodi:namedview id="base" pagecolor="#ffffff" bordercolor="#666666" borderopacity="1.0" inkscape:pageopacity="0.0" inkscape:pageshadow="2" inkscape:zoom="12.715719" inkscape:cx="3.4028069" inkscape:cy="18.321063" inkscape:document-units="px" inkscape:current-layer="layer1" showgrid="true" units="px" inkscape:window-width="1366" inkscape:window-height="716" inkscape:window-x="-8" inkscape:window-y="-8" inkscape:window-maximized="1" inkscape:snap-global="false">
    <inkscape:grid type="xygrid" id="grid4443" empspacing="2" spacingx="0.5" spacingy="0.5"></inkscape:grid>
  </sodipodi:namedview>
  
  <g inkscape:label="Layer 1" inkscape:groupmode="layer" id="layer1" transform="translate(0,-996.3622)" fill="#7ac853" class="color000 svgShape">
    <g id="g15781" transform="matrix(3.7795276,0,0,3.7795276,1942.8604,-2406.7349)" fill="#7ac853" class="color000 svgShape">
      <circle r="7.4083333" cy="907.8111" cx="-506.64014" id="circle15770" style="opacity: 1; fill-opacity: 1; stroke: none; stroke-width: 0.264583; stroke-linecap: round; stroke-linejoin: round; stroke-miterlimit: 4; stroke-dasharray: none; stroke-dashoffset: 0; stroke-opacity: 1;" fill="#7ac853" class="colorrgb2551937 svgShape"></circle>
      <g id="g15779" transform="translate(32.518671,243.80591)" style="" fill="#ffffff" class="colorrgb255255255 svgShape">
        <g id="g15775" style="" fill="#ffffff" class="colorrgb255255255 svgShape">
          <path style="fill-rule: evenodd; stroke: none; stroke-width: 1px; stroke-linecap: round; stroke-linejoin: round; stroke-opacity: 1;" d="m -2046.7676,1410.3555 -1.1758,1.1679 c 0,0 8.1462,8.1471 12.2188,12.2207 -0.6032,1.1349 -0.5736,2.5894 -0.2402,3.8321 0.4715,1.753 1.8427,3.1235 3.5957,3.5937 1.7529,0.4711 3.6224,-0.03 4.9043,-1.3125 l -0.035,-0.033 0.035,0.024 -16.1778,-16.1797 11.8711,5.5097 0,0 c 0.129,1.4785 1.0484,2.7789 2.4082,3.4062 1.9083,0.8805 4.1718,0.2181 5.2793,-1.5449 l -0.043,-0.023 0.039,0.012 -18.9649,-8.8027 13.3438,1.2324 c 0.23,0.4893 0.4819,0.9045 0.9297,1.2148 0.899,0.6214 2.0582,0.7234 3.041,0.2676 0.9828,-0.4557 1.6362,-1.398 1.7148,-2.4726 l -0.037,0 0.029,0 z" transform="matrix(0.26458333,0,0,0.26458333,0,288.53332)" id="path15772" inkscape:connector-curvature="0" sodipodi:nodetypes="ccccccccccccccccccccccc" fill="#ffffff" class="colorrgb255255255 svgShape"></path>
        </g>
        <path inkscape:connector-curvature="0" id="path15777" d="m -542.22266,660.79883 c -0.38232,0.11125 -0.62407,0.49138 -0.5625,0.88476 0.0616,0.39339 0.40665,0.6808 0.80469,0.66993 a 0.13230489,0.13230489 0 1 0 -0.006,-0.26368 c -0.26708,0.007 -0.4958,-0.18332 -0.53711,-0.44726 -0.0413,-0.26395 0.11651,-0.51519 0.37305,-0.58985 0.25654,-0.0747 0.52799,0.052 0.63477,0.29688 a 0.13230489,0.13230489 0 1 0 0.24218,-0.10547 c -0.15913,-0.36499 -0.56689,-0.55657 -0.94922,-0.44531 z" style="color: rgb(0, 0, 0); font: medium sans-serif; text-indent: 0px; text-align: start; text-decoration: none solid rgb(0, 0, 0); letter-spacing: normal; word-spacing: normal; text-transform: none; direction: ltr; writing-mode: lr-tb; baseline-shift: baseline; text-anchor: start; white-space: normal; clip-rule: nonzero; display: inline; overflow: visible; visibility: visible; opacity: 1; isolation: auto; mix-blend-mode: normal; color-interpolation: srgb; color-interpolation-filters: linearrgb; fill-opacity: 1; fill-rule: nonzero; stroke: none; stroke-width: 0.264583; stroke-linecap: round; stroke-linejoin: round; stroke-miterlimit: 4; stroke-dasharray: none; stroke-dashoffset: 0; stroke-opacity: 1; color-rendering: auto; image-rendering: auto; shape-rendering: auto; text-rendering: auto;" fill="#ffffff" class="colorrgb255255255 svgShape"></path>
      </g>
    </g>
  </g>

	<metadata>
		<rdf:rdf xmlns:rdf="http://www.w3.org/1999/02/22-rdf-syntax-ns#" xmlns:rdfs="http://www.w3.org/2000/01/rdf-schema#" xmlns:dc="http://purl.org/dc/elements/1.1/">
			<rdf:description about="https://iconscout.com/legal#licenses" dc:title="measuring-spoon-spoons-kitchen-portion-control-measure" dc:description="measuring-spoon-spoons-kitchen-portion-control-measure" dc:publisher="Iconscout" dc:date="2017-06-27" dc:format="image/svg+xml" dc:language="en">
				<dc:creator>
					<rdf:bag>
						<rdf:li>Vignesh Oviyan</rdf:li>
					</rdf:bag>
				</dc:creator>
			</rdf:description>
		</rdf:rdf>
    </metadata></svg>
</g></svg>